<svg width="70" height="78" viewBox="0 0 70 78" fill="none" xmlns="http://www.w3.org/2000/svg">
<path d="M67.7604 0H2.23962C1.00268 0 0 1.11752 0 2.49558V75.5044C0 76.8825 1.00268 78 2.23962 78H67.7604C68.9973 78 70 76.8825 70 75.5044V2.49558C70 1.11752 68.9973 0 67.7604 0ZM32.1665 43.3562C32.1665 48.0017 29.8297 50.8876 26.0676 50.8876C23.7048 50.8876 21.5933 49.5669 20.1221 47.1689C19.4715 46.108 19.7156 44.6601 20.6677 43.9349C21.6199 43.2097 22.9196 43.4822 23.57 44.5428C24.2584 45.6653 25.0987 46.2343 26.0676 46.2343C26.8333 46.2343 27.9905 46.2343 27.9905 43.3564V31.5106H22.2851C21.1319 31.5106 20.1971 30.469 20.1971 29.184C20.1971 27.8991 21.1319 26.8574 22.2851 26.8574H30.0785C31.2317 26.8574 32.1665 27.8991 32.1665 29.184V43.3562ZM42.4276 51.3091C39.6283 51.3091 36.7723 49.9939 34.9744 47.8769C34.1815 46.9435 34.218 45.4707 35.0554 44.5875C35.8933 43.704 37.2153 43.7447 38.0075 44.6778C39.0122 45.8607 40.7884 46.6556 42.4276 46.6556C44.1057 46.6556 46.0656 46.1095 46.0656 44.5715C46.0764 43.1216 45.3837 42.5785 42.1653 41.4922C39.3262 40.5342 35.0355 39.086 35.0355 33.575C35.0355 29.4573 38.2395 26.6907 43.0083 26.6907C45.1313 26.6907 47.4461 27.4079 49.0497 28.5629C50.0181 29.2604 50.2958 30.7008 49.6698 31.7802C49.0436 32.8593 47.7509 33.1687 46.7825 32.4712C45.8616 31.8079 44.3095 31.3442 43.0083 31.3442C41.2569 31.3442 39.2117 31.9287 39.2117 33.575C39.2117 35.3631 40.1499 35.9498 43.3761 37.0386C46.1256 37.9665 50.2808 39.3687 50.2418 44.5907C50.2416 48.6014 47.1014 51.3091 42.4276 51.3091Z" fill="#9E25FB"/>
</svg>
